<svg width="88" height="88" viewBox="0 0 88 88" fill="none" xmlns="http://www.w3.org/2000/svg">
<g clip-path="url(#clip0_1_193)" filter="url(#filter0_d_1_193)">
<path d="M42.9333 28.8C43.4667 28.8 43.8667 28.6667 44.1333 28.4C44.4 28.1333 44.5333 27.7778 44.5333 27.3333C44.5333 26.8889 44.4 26.4889 44.1333 26.1333C43.8667 25.7778 43.5111 25.6 43.0667 25.6C42.6222 25.6 42.2222 25.7778 41.8667 26.1333C41.5111 26.4889 41.3333 26.8889 41.3333 27.3333C41.3333 27.7778 41.5111 28.1333 41.8667 28.4C42.2222 28.6667 42.5778 28.8 42.9333 28.8ZM33.3333 28.8C33.6889 28.8 34.0444 28.6667 34.4 28.4C34.7556 28.1333 34.9333 27.7778 34.9333 27.3333C34.9333 26.8889 34.7556 26.4889 34.4 26.1333C34.0444 25.7778 33.6889 25.6 33.3333 25.6C32.9778 25.6 32.6222 25.7778 32.2667 26.1333C31.9111 26.4889 31.7333 26.8889 31.7333 27.3333C31.7333 27.7778 31.9111 28.1333 32.2667 28.4C32.6222 28.6667 32.9778 28.8 33.3333 28.8ZM75.4667 32.2667C75.1111 32.2667 74.8 32.4 74.5333 32.6667C74.2667 32.9333 74.1333 33.2889 74.1333 33.7333C74.1333 34.1778 74.2667 34.5778 74.5333 34.9333C74.8 35.2889 75.1111 35.4667 75.4667 35.4667C77.0667 35.4667 78.3556 35.9556 79.3333 36.9333C80.3111 37.9111 80.8 39.1111 80.8 40.5333V64C80.8 65.6 80.3111 66.8889 79.3333 67.8667C78.3556 68.8444 77.0667 69.3333 75.4667 69.3333H38.9333C37.5111 69.3333 36.2667 68.8444 35.2 67.8667C34.1333 66.8889 33.6 65.6 33.6 64V40.5333C33.6 39.1111 34.1333 37.9111 35.2 36.9333C36.2667 35.9556 37.5111 35.4667 38.9333 35.4667H61.6C61.9556 35.4667 62.2667 35.2889 62.5333 34.9333C62.8 34.5778 62.9333 34.1778 62.9333 33.7333C62.9333 33.2889 62.8 32.9333 62.5333 32.6667C62.2667 32.4 61.9556 32.2667 61.6 32.2667H51.7333C51.9111 31.2 52 30.1333 52 29.0667V22.4H54.1333C54.4889 22.4 54.8444 22.2667 55.2 22C55.5556 21.7333 55.7333 21.4222 55.7333 21.0667V15.4667C55.7333 12.6222 55.0222 10.0444 53.6 7.73333C52.1778 5.42222 50.2667 3.55555 47.8667 2.13333C45.4667 0.711105 42.8444 -7.62939e-06 40 -7.62939e-06C37.8667 -7.62939e-06 35.9111 0.577774 34.1333 1.73333C32.3556 2.88889 31.0222 4.44444 30.1333 6.39999C27.4667 6.57777 25.2889 7.6 23.6 9.46666C21.9111 11.3333 21.0667 13.5111 21.0667 16V20.5333C21.0667 21.2444 21.3778 21.6889 22 21.8667C22.6222 22.0444 23.2889 22.2222 24 22.4V29.0667C24 31.3778 24.5778 33.6 25.7333 35.7333C26.8889 37.8667 28.4444 39.5556 30.4 40.8V41.8667H28.5333C24.0889 41.8667 20 42.9778 16.2667 45.2C12.5333 47.4222 9.55556 50.4 7.33333 54.1333C5.11111 57.8667 4 62.0444 4 66.6667V70.6667C4 73.1556 4.93333 75.3333 6.8 77.2C8.66667 79.0667 10.8444 80 13.3333 80H71.2C71.7333 80 72.1333 79.8667 72.4 79.6C72.6667 79.3333 72.8 78.9778 72.8 78.5333C72.8 78.0889 72.6667 77.6889 72.4 77.3333C72.1333 76.9778 71.7333 76.8 71.2 76.8H69.8667C70.9333 75.5556 71.6444 74.1333 72 72.5333H75.4667C77.9556 72.5333 80 71.6889 81.6 70C83.2 68.3111 84 66.3111 84 64V40.5333C84 38.2222 83.2 36.2667 81.6 34.6667C80 33.0667 77.9556 32.2667 75.4667 32.2667ZM51.2 72.5333V76.8H42.1333V76C42.1333 74.7556 41.7778 73.6 41.0667 72.5333H51.2ZM40 3.2C43.5556 3.2 46.5333 4.39999 48.9333 6.8C51.3333 9.2 52.5333 12.0889 52.5333 15.4667V19.4667H40C37.8667 19.4667 36 18.6667 34.4 17.0667C32.8 15.4667 32 13.5555 32 11.3333C32 9.11111 32.8 7.2 34.4 5.6C36 3.99999 37.8667 3.2 40 3.2ZM24 16C24 14.5778 24.4889 13.2444 25.4667 12C26.4444 10.7556 27.6444 9.95555 29.0667 9.6L28.8 11.2C28.8 13.5111 29.4222 15.6444 30.6667 17.6C28.7111 19.2 26.4889 19.7333 24 19.2V16ZM27.2 29.0667V22.4C29.3333 22.0444 31.2 21.1556 32.8 19.7333C34.9333 21.5111 37.3333 22.4 40 22.4H49.0667V29.0667C49.0667 30.1333 48.8889 31.2 48.5333 32.2667H38.9333C37.1556 32.2667 35.5556 32.7556 34.1333 33.7333C32.7111 34.7111 31.7333 35.9111 31.2 37.3333C29.9556 36.4444 28.9778 35.2444 28.2667 33.7333C27.5556 32.2222 27.2 30.6667 27.2 29.0667ZM13.3333 76.8C11.5556 76.8 10.0889 76.2222 8.93333 75.0667C7.77778 73.9111 7.2 72.4444 7.2 70.6667V66.6667C7.2 62.7556 8.13333 59.1556 10 55.8667C11.8667 52.5778 14.4889 49.9556 17.8667 48C21.2444 46.0444 24.8 45.0667 28.5333 45.0667H30.4V64C30.4 65.0667 30.5778 66.0444 30.9333 66.9333H19.7333C19.3778 66.9333 19.0222 67.0667 18.6667 67.3333C18.3111 67.6 18.1333 67.9556 18.1333 68.4C18.1333 68.8444 18.3111 69.2 18.6667 69.4667C19.0222 69.7333 19.3778 69.8667 19.7333 69.8667H30.4V76.8H13.3333ZM33.6 76.8V72.5333H35.4667C36.3556 72.5333 37.1556 72.8889 37.8667 73.6C38.5778 74.3111 38.9333 75.1111 38.9333 76V76.8H33.6ZM54.4 72.5333H60.2667V76.8H54.4V72.5333ZM63.4667 76.8V72.5333H68.8C68.4445 73.7778 67.7778 74.8 66.8 75.6C65.8222 76.4 64.7111 76.8 63.4667 76.8ZM57.3333 46.6667C55.7333 46.6667 54.3556 47.2 53.2 48.2667C52.0444 49.3333 51.4667 50.6667 51.4667 52.2667C51.4667 53.8667 52.0444 55.2444 53.2 56.4C54.3556 57.5556 55.7333 58.1333 57.3333 58.1333C58.9333 58.1333 60.2667 57.5556 61.3333 56.4C62.4 55.2444 62.9333 53.8667 62.9333 52.2667C62.9333 50.6667 62.4 49.3333 61.3333 48.2667C60.2667 47.2 58.9333 46.6667 57.3333 46.6667ZM57.3333 54.9333C56.4444 54.9333 55.7778 54.7111 55.3333 54.2667C54.8889 53.8222 54.6667 53.2 54.6667 52.4C54.6667 51.6 54.8889 50.9333 55.3333 50.4C55.7778 49.8667 56.4 49.6 57.2 49.6C58 49.6 58.6667 49.8667 59.2 50.4C59.7333 50.9333 60 51.6 60 52.4C60 53.2 59.7333 53.8222 59.2 54.2667C58.6667 54.7111 58.0444 54.9333 57.3333 54.9333ZM68.5333 35.4667C68.8889 35.4667 69.2444 35.2889 69.6 34.9333C69.9556 34.5778 70.1333 34.1778 70.1333 33.7333C70.1333 33.2889 69.9556 32.9333 69.6 32.6667C69.2444 32.4 68.8889 32.2667 68.5333 32.2667C68.1778 32.2667 67.8222 32.4 67.4667 32.6667C67.1111 32.9333 66.9333 33.2889 66.9333 33.7333C66.9333 34.1778 67.1111 34.5778 67.4667 34.9333C67.8222 35.2889 68.1778 35.4667 68.5333 35.4667Z" fill="white"/>
</g>
<defs>
<filter id="filter0_d_1_193" x="0" y="0" width="88" height="88" filterUnits="userSpaceOnUse" color-interpolation-filters="sRGB">
<feFlood flood-opacity="0" result="BackgroundImageFix"/>
<feColorMatrix in="SourceAlpha" type="matrix" values="0 0 0 0 0 0 0 0 0 0 0 0 0 0 0 0 0 0 127 0" result="hardAlpha"/>
<feOffset dy="4"/>
<feGaussianBlur stdDeviation="2"/>
<feComposite in2="hardAlpha" operator="out"/>
<feColorMatrix type="matrix" values="0 0 0 0 0 0 0 0 0 0 0 0 0 0 0 0 0 0 0.25 0"/>
<feBlend mode="normal" in2="BackgroundImageFix" result="effect1_dropShadow_1_193"/>
<feBlend mode="normal" in="SourceGraphic" in2="effect1_dropShadow_1_193" result="shape"/>
</filter>
<clipPath id="clip0_1_193">
<rect width="80" height="80" fill="white" transform="matrix(1 0 0 -1 4 80)"/>
</clipPath>
</defs>
</svg>
